<svg width="800" height="600" viewBox="0 0 800 600" fill="none" xmlns="http://www.w3.org/2000/svg">
  <!-- Background gradient -->
  <rect width="800" height="600" fill="#F8F5FF"/>

  <!-- Decorative background circles -->
  <circle cx="120" cy="100" r="140" fill="#a855f7" opacity="0.08"/>
  <circle cx="680" cy="480" r="110" fill="#7c3aed" opacity="0.08"/>

  <!-- Main dashboard window -->
  <rect x="50" y="80" width="700" height="480" rx="8" fill="white" stroke="#E5E7EB" stroke-width="2"/>

  <!-- Dashboard header -->
  <rect x="50" y="80" width="700" height="50" rx="8" fill="#FAFAFA"/>
  <rect x="70" y="100" width="120" height="12" rx="4" fill="#a855f7" opacity="0.6"/>
  <circle cx="690" cy="105" r="12" fill="#E5E7EB"/>
  <circle cx="720" cy="105" r="12" fill="#E5E7EB"/>

  <!-- Sidebar -->
  <rect x="50" y="130" width="140" height="430" fill="#F9FAFB"/>
  <rect x="65" y="150" width="110" height="32" rx="6" fill="#a855f7" opacity="0.15"/>
  <rect x="65" y="195" width="110" height="32" rx="6" fill="#E5E7EB" opacity="0.4"/>
  <rect x="65" y="240" width="110" height="32" rx="6" fill="#E5E7EB" opacity="0.4"/>
  <rect x="65" y="285" width="110" height="32" rx="6" fill="#E5E7EB" opacity="0.4"/>
  <rect x="65" y="330" width="110" height="32" rx="6" fill="#E5E7EB" opacity="0.4"/>

  <!-- Metric Cards Row -->
  <rect x="210" y="150" width="150" height="90" rx="8" fill="white" stroke="#E5E7EB" stroke-width="1.5"/>
  <rect x="225" y="165" width="30" height="30" rx="6" fill="#a855f7" opacity="0.15"/>
  <rect x="225" y="205" width="70" height="14" rx="3" fill="#1F2937"/>
  <rect x="225" y="225" width="50" height="10" rx="2" fill="#6B7280"/>

  <rect x="380" y="150" width="150" height="90" rx="8" fill="white" stroke="#E5E7EB" stroke-width="1.5"/>
  <rect x="395" y="165" width="30" height="30" rx="6" fill="#7c3aed" opacity="0.15"/>
  <rect x="395" y="205" width="70" height="14" rx="3" fill="#1F2937"/>
  <rect x="395" y="225" width="50" height="10" rx="2" fill="#6B7280"/>

  <rect x="550" y="150" width="150" height="90" rx="8" fill="white" stroke="#E5E7EB" stroke-width="1.5"/>
  <rect x="565" y="165" width="30" height="30" rx="6" fill="#9333ea" opacity="0.15"/>
  <rect x="565" y="205" width="70" height="14" rx="3" fill="#1F2937"/>
  <rect x="565" y="225" width="50" height="10" rx="2" fill="#6B7280"/>

  <!-- Main Chart Area -->
  <rect x="210" y="260" width="320" height="220" rx="8" fill="white" stroke="#E5E7EB" stroke-width="1.5"/>
  <rect x="225" y="275" width="80" height="12" rx="3" fill="#1F2937"/>

  <!-- Line chart mockup -->
  <polyline points="230,420 260,390 290,410 320,370 350,380 380,350 410,360 440,330 470,345 500,320"
            stroke="#a855f7" stroke-width="3" fill="none"/>
  <circle cx="230" cy="420" r="4" fill="#a855f7"/>
  <circle cx="260" cy="390" r="4" fill="#a855f7"/>
  <circle cx="290" cy="410" r="4" fill="#a855f7"/>
  <circle cx="320" cy="370" r="4" fill="#a855f7"/>
  <circle cx="350" cy="380" r="4" fill="#a855f7"/>
  <circle cx="380" cy="350" r="4" fill="#a855f7"/>
  <circle cx="410" cy="360" r="4" fill="#a855f7"/>
  <circle cx="440" cy="330" r="4" fill="#a855f7"/>
  <circle cx="470" cy="345" r="4" fill="#a855f7"/>
  <circle cx="500" cy="320" r="4" fill="#a855f7"/>

  <!-- Bar chart -->
  <rect x="550" y="260" width="150" height="220" rx="8" fill="white" stroke="#E5E7EB" stroke-width="1.5"/>
  <rect x="565" y="275" width="80" height="12" rx="3" fill="#1F2937"/>

  <rect x="565" y="410" width="20" height="50" rx="4" fill="#a855f7" opacity="0.8"/>
  <rect x="595" y="390" width="20" height="70" rx="4" fill="#7c3aed" opacity="0.8"/>
  <rect x="625" y="420" width="20" height="40" rx="4" fill="#9333ea" opacity="0.8"/>
  <rect x="655" y="375" width="20" height="85" rx="4" fill="#a855f7" opacity="0.8"/>

  <!-- Data Table -->
  <rect x="210" y="500" width="490" height="50" rx="8" fill="white" stroke="#E5E7EB" stroke-width="1.5"/>
  <rect x="225" y="515" width="80" height="8" rx="2" fill="#E5E7EB"/>
  <rect x="320" y="515" width="100" height="8" rx="2" fill="#E5E7EB"/>
  <rect x="435" y="515" width="60" height="8" rx="2" fill="#E5E7EB"/>
  <rect x="510" y="515" width="80" height="8" rx="2" fill="#E5E7EB"/>
  <rect x="605" y="515" width="70" height="8" rx="2" fill="#E5E7EB"/>

  <rect x="225" y="530" width="80" height="8" rx="2" fill="#E5E7EB" opacity="0.6"/>
  <rect x="320" y="530" width="100" height="8" rx="2" fill="#E5E7EB" opacity="0.6"/>
  <rect x="435" y="530" width="60" height="8" rx="2" fill="#a855f7" opacity="0.3"/>
  <rect x="510" y="530" width="80" height="8" rx="2" fill="#E5E7EB" opacity="0.6"/>
  <rect x="605" y="530" width="70" height="8" rx="2" fill="#E5E7EB" opacity="0.6"/>

  <!-- Title -->
  <text x="400" y="580" font-family="Inter, system-ui, sans-serif" font-size="28" font-weight="700" fill="#6B3E2E" text-anchor="middle">AnalyticsPro Dashboard</text>
</svg>
