<svg width="800" height="600" viewBox="0 0 800 600" fill="none" xmlns="http://www.w3.org/2000/svg">
  <!-- Background gradient -->
  <rect width="800" height="600" fill="#F5EDE6"/>

  <!-- Decorative background circles -->
  <circle cx="100" cy="100" r="150" fill="#2BB5A3" opacity="0.1"/>
  <circle cx="700" cy="500" r="120" fill="#6B3E2E" opacity="0.1"/>

  <!-- Main content area (representing browser window) -->
  <rect x="50" y="80" width="700" height="480" rx="8" fill="white" stroke="#E5E7EB" stroke-width="2"/>

  <!-- Browser top bar -->
  <rect x="50" y="80" width="700" height="40" rx="8" fill="#F3F4F6"/>
  <circle cx="75" cy="100" r="6" fill="#EF4444"/>
  <circle cx="95" cy="100" r="6" fill="#F59E0B"/>
  <circle cx="115" cy="100" r="6" fill="#10B981"/>

  <!-- Navbar mockup -->
  <rect x="70" y="140" width="660" height="50" fill="#FAFAFA"/>
  <circle cx="100" cy="165" r="15" fill="#2BB5A3"/>
  <rect x="130" y="157" width="100" height="16" rx="4" fill="#6B3E2E"/>
  <rect x="620" y="155" width="90" height="20" rx="10" fill="#2BB5A3"/>

  <!-- Hero section mockup -->
  <rect x="90" y="220" width="280" height="30" rx="6" fill="#2BB5A3" opacity="0.2"/>
  <rect x="90" y="270" width="300" height="24" rx="4" fill="#1A1A1A"/>
  <rect x="90" y="305" width="250" height="24" rx="4" fill="#1A1A1A" opacity="0.4"/>
  <rect x="90" y="340" width="280" height="16" rx="4" fill="#1A1A1A" opacity="0.3"/>
  <rect x="90" y="365" width="240" height="16" rx="4" fill="#1A1A1A" opacity="0.3"/>

  <!-- CTA buttons -->
  <rect x="90" y="400" width="120" height="40" rx="8" fill="#6B3E2E"/>
  <rect x="220" y="400" width="120" height="40" rx="8" fill="white" stroke="#6B3E2E" stroke-width="2"/>

  <!-- Hero image placeholder -->
  <rect x="440" y="220" width="280" height="280" rx="12" fill="#E5E7EB"/>
  <circle cx="580" cy="340" r="60" fill="#6B3E2E" opacity="0.2"/>
  <path d="M 550 360 Q 580 340 610 360" stroke="#6B3E2E" stroke-width="3" fill="none"/>

  <!-- Product cards mockup -->
  <rect x="90" y="470" width="180" height="60" rx="6" fill="#F3F4F6"/>
  <rect x="100" y="480" width="160" height="30" rx="4" fill="#E5E7EB"/>
  <rect x="100" y="515" width="80" height="10" rx="2" fill="#2BB5A3"/>

  <rect x="290" y="470" width="180" height="60" rx="6" fill="#F3F4F6"/>
  <rect x="300" y="480" width="160" height="30" rx="4" fill="#E5E7EB"/>
  <rect x="300" y="515" width="80" height="10" rx="2" fill="#2BB5A3"/>

  <rect x="490" y="470" width="180" height="60" rx="6" fill="#F3F4F6"/>
  <rect x="500" y="480" width="160" height="30" rx="4" fill="#E5E7EB"/>
  <rect x="500" y="515" width="80" height="10" rx="2" fill="#2BB5A3"/>

  <!-- "Café Aurora" text at bottom -->
  <text x="400" y="580" font-family="Georgia, serif" font-size="32" font-weight="bold" fill="#6B3E2E" text-anchor="middle">Café Aurora</text>
</svg>
