<svg width="800" height="600" viewBox="0 0 800 600" fill="none" xmlns="http://www.w3.org/2000/svg">
<rect width="800" height="600" fill="#F1F5F9"/>
<rect x="100" y="80" width="600" height="440" fill="#111827" rx="8"/>
<rect x="140" y="120" width="260" height="160" fill="#1F2937" rx="4"/>
<polyline points="160,240 180,220 200,200 220,180 240,160 260,140 280,120 300,100 320,120 340,140 360,160 380,180" stroke="#10B981" stroke-width="2" fill="none"/>
<rect x="440" y="120" width="220" height="160" fill="#1F2937" rx="4"/>
<circle cx="550" cy="200" r="60" stroke="#3B82F6" stroke-width="8" fill="none"/>
<circle cx="550" cy="200" r="60" stroke="#10B981" stroke-width="8" fill="none" stroke-dasharray="188 377" transform="rotate(-90 550 200)"/>
<rect x="140" y="300" width="520" height="80" fill="#1F2937" rx="4"/>
<rect x="160" y="320" width="60" height="40" fill="#22C55E" rx="4"/>
<rect x="240" y="320" width="60" height="40" fill="#3B82F6" rx="4"/>
<rect x="320" y="320" width="60" height="40" fill="#F59E0B" rx="4"/>
<text x="400" y="420" text-anchor="middle" fill="#475569" font-family="Inter" font-size="16" font-weight="600">DevOps Monitoring</text>
</svg>